<svg version="1.1" id="Layer_1" x="0" y="0" viewBox="0 0 34.9 34.4" style="enable-background:new 0 0 34.9 34.4" xml:space="preserve" xmlns="http://www.w3.org/2000/svg"><defs id="defs2"><style type="text/css" id="style1-3">.st1{fill:#002f6c}</style></defs><g id="_Group_"><g id="_Group_2"><g id="_Group_3"><path id="_Path_" d="M29.5 21.3c-3.2 5.8-9.8 10.8-13 12.7-4.1-3.1-7.5-6.9-10.3-11.3l.5-9.7c3 5.2 6.6 10.2 10.6 14.7 2.4-1.1 7.5-3.9 12.2-6.4" style="fill:#00a5df"/><path id="_Path_2" class="st1" d="M4.8 21.4C1.4 15.7.5 7.5.4 3.8 5 1.8 9.9.8 14.9.7l8 5.3c-5.9-.1-11.8.4-17.5 1.6-.1 2.5-.4 8.4-.6 13.8"/><path id="_Path_3" class="st1" d="M16.9.4C23.6.2 31.2 3.2 34.5 5c-.6 5-2.2 9.8-4.5 14.3l-8.5 4.5c2.9-5.2 5.3-10.6 7.1-16.1-2-1.5-7.1-4.6-11.7-7.3"/></g></g></g><g style="clip-rule:evenodd;fill-rule:evenodd;stroke-width:0;stroke-dasharray:none;image-rendering:optimizeQuality;shape-rendering:geometricPrecision;text-rendering:geometricPrecision" id="g2" transform="translate(.806 .02) scale(.00098)"><g id="Layer_x0020_1" style="stroke-width:0;stroke-dasharray:none"><path d="M3587 17554c0-2948 906-5683 2447-7929l19975 18319c-2380 2142-5499 3443-8910 3443-7451 0-13512-6205-13512-13832zm27024 0c0 2581-695 4999-1903 7070L8964 6517c2265-1753 5083-2795 8135-2795 7451 0 13512 6205 13512 13832zM17099 0C7670 0 0 7875 0 17554s7671 17554 17099 17554c9429 0 17099-7875 17099-17554S26527 0 17099 0Z" id="path1" style="stroke-width:0;stroke-dasharray:none;fill:#ed323a;fill-rule:nonzero"/></g></g></svg>